<?xml version="1.0" encoding="utf-8"?>
<!-- Generator: Adobe Illustrator 17.1.0, SVG Export Plug-In . SVG Version: 6.00 Build 0)  -->
<!DOCTYPE svg PUBLIC "-//W3C//DTD SVG 1.1//EN" "http://www.w3.org/Graphics/SVG/1.1/DTD/svg11.dtd">
<svg version="1.1" xmlns="http://www.w3.org/2000/svg" xmlns:xlink="http://www.w3.org/1999/xlink" x="0px" y="0px"
	 viewBox="0 0 36 42" enable-background="new 0 0 36 42" xml:space="preserve">
<g id="Accent_Striping">
	<polygon fill="#FFFFFF" points="22.5,1 22.5,2 34,2 34,40 2,40 2,2 13.5,2 13.5,1 1,1 1,41 35,41 35,1 	"/>
</g>
<g id="Captions">
	<g>
		<path fill="#FFFFFF" d="M10.318,25.816H8.929L9.18,24.5h4.159l-0.257,1.316h-1.318l-0.91,4.684H9.408L10.318,25.816z"/>
		<path fill="#FFFFFF" d="M12.908,30.5l1.167-6h1.447l-1.167,6H12.908z"/>
		<path fill="#FFFFFF" d="M16.723,24.5h1.971l0.029,3.726h0.012l1.371-3.726h2.176l-1.207,6h-1.377l0.957-4.524l-0.012-0.018
			L18.81,30.5h-1.067l-0.012-4.542H17.72L16.857,30.5h-1.4L16.723,24.5z"/>
		<path fill="#FFFFFF" d="M23.32,24.5h3.751l-0.24,1.25h-2.292l-0.216,1.142h1.185L25.298,28h-1.185l-0.233,1.25h2.357l-0.24,1.25
			h-3.814L23.32,24.5z"/>
	</g>
	<g>
		<path fill="#FFFFFF" d="M18.397,0.954c-0.332,0-0.602,0.269-0.602,0.602c0,0.332,0.269,0.602,0.602,0.602
			c0.332,0,0.601-0.27,0.601-0.602C18.998,1.223,18.729,0.954,18.397,0.954z M18.274,1.982l-0.15-0.119V1.248l0.15-0.119V1.982z
			 M18.472,2.016l-0.074,0.06h-0.001l-0.075-0.06v-0.92l0.075-0.06h0.001l0.074,0.06V2.016z M18.67,1.863l-0.15,0.119V1.129
			l0.15,0.119V1.863z"/>
		<g>
			<path fill="#FFFFFF" d="M15.46,0.775c0,0-0.129,0-0.189,0c-0.042,0-0.048,0.018-0.048,0.047c0,0.048,0,0.089,0,0.137
				c0,0.139,0,0.404,0,0.404h0.2v0.153H15.22v0.666c0,0.028,0,0.035,0.057,0.035c0.024,0,0.195,0,0.195,0v0.157c0,0-0.206,0-0.307,0
				c-0.037,0-0.078-0.023-0.092-0.072c-0.013-0.05-0.009-0.122-0.009-0.122V0.814c0-0.066,0.003-0.106,0.028-0.141
				c0.037-0.051,0.066-0.049,0.086-0.049h0.281V0.775z"/>
			<path fill="#FFFFFF" d="M15.649,0.911c0,0,0,1.132,0,1.154c0,0.028,0,0.037,0.024,0.037c0.037,0,0.127,0,0.127,0V2.22
				c0,0-0.279,0-0.194,0c0,0-0.083,0.009-0.083-0.094L15.52,0.909L15.649,0.911z"/>
			<path fill="#FFFFFF" d="M16.156,1.02c0,0-0.103,0-0.153,0c-0.032,0-0.037,0.013-0.037,0.033c0,0.037,0,0.067,0,0.105
				c0,0.104,0,0.302,0,0.302h0.159v0.116h-0.161v0.5c0,0.02,0,0.026,0.046,0.026c0.018,0,0.155,0,0.155,0V2.22c0,0-0.164,0-0.245,0
				c-0.03,0-0.063-0.02-0.074-0.055c-0.011-0.037-0.007-0.091-0.007-0.091V1.049c0-0.05,0.003-0.08,0.022-0.107
				c0.03-0.037,0.053-0.034,0.069-0.034h0.226V1.02z"/>
			<path fill="#FFFFFF" d="M16.56,1.047c0.021,0.07,0.019,0.17,0.017,0.247h-0.127c-0.007-0.099,0.019-0.236-0.035-0.278
				C16.391,1.01,16.368,1.01,16.35,1.036c-0.019,0.039-0.016,0.089-0.019,0.138v0.852c0.002,0.028,0.006,0.057,0.017,0.079
				c0.023,0.023,0.067,0.026,0.08,0.004c0.028-0.057,0.023-0.14,0.023-0.216c0.002-0.059,0-0.129,0.002-0.182h0.127
				c-0.005,0.166,0.02,0.374-0.068,0.479c-0.069,0.076-0.184,0.067-0.251-0.011C16.204,2.094,16.202,1.953,16.2,1.82l0.002-0.586
				c-0.002-0.122,0.021-0.251,0.083-0.303c0.069-0.053,0.166-0.053,0.229,0.02C16.534,0.979,16.551,1.01,16.56,1.047z"/>
			<path fill="#FFFFFF" d="M16.968,0.909v0.122h-0.113V2.22h-0.129V1.033h-0.111V0.909H16.968z"/>
			<path fill="#FFFFFF" d="M17.208,0.909c0.09,0,0.127,0.035,0.146,0.087c0.016,0.055,0.016,0.123,0.016,0.185
				c-0.002,0.141,0.013,0.326-0.072,0.383c0.03,0.021,0.063,0.074,0.067,0.136c0.005,0.171,0.003,0.52,0.003,0.52h-0.123
				c0,0,0-0.325-0.004-0.493c-0.005-0.042-0.021-0.081-0.046-0.094c-0.02-0.016-0.074-0.016-0.074-0.016V2.22h-0.125V0.909H17.208z
				 M17.203,1.029c-0.024-0.014-0.058-0.014-0.081-0.006v0.471c0.03,0.008,0.065,0.005,0.094-0.013
				c0.035-0.042,0.026-0.126,0.03-0.19c-0.002-0.078,0-0.143-0.009-0.209C17.228,1.045,17.215,1.038,17.203,1.029z"/>
			<path fill="#FFFFFF" d="M17.766,2.039c0,0,0.007,0.089-0.051,0.142c-0.069,0.07-0.172,0.065-0.244,0.007
				c-0.065-0.053-0.064-0.147-0.064-0.147V1.088c0,0-0.002-0.094,0.064-0.147c0.072-0.059,0.177-0.063,0.247,0.007
				c0.059,0.06,0.048,0.151,0.048,0.151V2.039z M17.646,1.088c0-0.045-0.011-0.072-0.055-0.072c-0.046,0-0.053,0.029-0.051,0.072
				c-0.002,0.119,0,0.951,0,0.951c-0.002,0.05,0.009,0.076,0.051,0.072c0.044,0,0.055-0.026,0.055-0.072
				C17.646,2.039,17.646,1.123,17.646,1.088z"/>
		</g>
		<g>
			<path fill="#FFFFFF" d="M19.327,0.983c0.064-0.102,0.16-0.109,0.217-0.048c0.048,0.043,0.074,0.14,0.074,0.24V2.22h-0.127V1.104
				c-0.004-0.067-0.021-0.08-0.052-0.08c-0.031,0-0.055,0.013-0.055,0.08V2.22h-0.129V1.102c0-0.053-0.023-0.072-0.053-0.072
				c-0.03,0-0.051,0.02-0.055,0.072V2.22h-0.125V1.186c0-0.104,0.012-0.21,0.07-0.255C19.164,0.877,19.27,0.881,19.327,0.983z"/>
			<path fill="#FFFFFF" d="M19.977,1.02c0,0-0.103,0-0.153,0c-0.032,0-0.037,0.013-0.037,0.033c0,0.037,0,0.067,0,0.105
				c0,0.104,0,0.302,0,0.302h0.16v0.116h-0.162v0.5c0,0.02,0,0.026,0.046,0.026c0.018,0,0.155,0,0.155,0V2.22c0,0-0.164,0-0.245,0
				c-0.03,0-0.063-0.02-0.074-0.055c-0.011-0.037-0.006-0.091-0.006-0.091V1.049c0-0.05,0.002-0.08,0.021-0.107
				c0.03-0.037,0.053-0.034,0.069-0.034h0.226V1.02z"/>
			<path fill="#FFFFFF" d="M20.395,1.047c0.023,0.07,0.021,0.17,0.018,0.247h-0.126c-0.007-0.099,0.019-0.236-0.035-0.278
				c-0.025-0.006-0.048-0.006-0.066,0.021c-0.02,0.039-0.016,0.089-0.02,0.138v0.852c0.003,0.028,0.007,0.057,0.018,0.079
				c0.024,0.023,0.068,0.026,0.081,0.004c0.028-0.057,0.023-0.14,0.023-0.216c0.002-0.059,0-0.129,0.002-0.182h0.127
				c-0.005,0.166,0.019,0.374-0.068,0.479c-0.069,0.076-0.184,0.067-0.251-0.011c-0.057-0.085-0.059-0.226-0.061-0.358l0.003-0.586
				c-0.003-0.122,0.021-0.251,0.083-0.303c0.069-0.053,0.166-0.053,0.229,0.02C20.37,0.979,20.387,1.01,20.395,1.047z"/>
			<path fill="#FFFFFF" d="M20.625,0.625v0.732h0.153V0.625h0.157v1.748h-0.159V1.52h-0.151v0.853h-0.159V0.625H20.625z"/>
		</g>
	</g>
</g>
</svg>
