<?xml version="1.0" encoding="utf-8"?>
<!-- Generator: Adobe Illustrator 17.1.0, SVG Export Plug-In . SVG Version: 6.00 Build 0)  -->
<!DOCTYPE svg PUBLIC "-//W3C//DTD SVG 1.1//EN" "http://www.w3.org/Graphics/SVG/1.1/DTD/svg11.dtd">
<svg version="1.1" xmlns="http://www.w3.org/2000/svg" xmlns:xlink="http://www.w3.org/1999/xlink" x="0px" y="0px"
	 viewBox="0 0 84 36" enable-background="new 0 0 84 36" xml:space="preserve">
<g id="Accent_Striping">
	<polygon fill="#FFFFFF" points="51,1 51,2 82,2 82,34 2,34 2,2 33,2 33,1 1,1 1,35 83,35 83,1 	"/>
</g>
<g id="Captions">
	<g>
		<circle fill="#FFFFFF" cx="42" cy="15.5" r="1.25"/>
		<circle fill="#FFFFFF" cx="42" cy="20.5" r="1.25"/>
	</g>
	<g>
		<path fill="#FFFFFF" d="M42.794,1.657c-0.665,0-1.204,0.539-1.204,1.204c0,0.664,0.539,1.203,1.204,1.203
			c0.664,0,1.203-0.539,1.203-1.203C43.997,2.196,43.458,1.657,42.794,1.657z M42.548,3.716l-0.301-0.24v-1.23l0.301-0.239V3.716z
			 M42.944,3.78l-0.15,0.119h-0.001L42.644,3.78V1.941l0.149-0.12h0.001l0.15,0.12V3.78z M43.341,3.476l-0.301,0.24v-1.71
			l0.301,0.239V3.476z"/>
		<g>
			<path fill="#FFFFFF" d="M36.921,1.302c0,0-0.258,0-0.38,0c-0.083,0-0.096,0.035-0.096,0.092c0,0.096,0,0.179,0,0.275
				c0,0.275,0,0.809,0,0.809h0.401v0.306H36.44v1.332c0,0.057,0,0.07,0.114,0.07c0.048,0,0.389,0,0.389,0V4.5c0,0-0.411,0-0.612,0
				c-0.075,0-0.158-0.048-0.184-0.144c-0.026-0.101-0.017-0.244-0.017-0.244V1.38c0-0.135,0.004-0.214,0.057-0.283
				C36.262,0.996,36.318,1,36.357,1h0.564V1.302z"/>
			<path fill="#FFFFFF" d="M37.297,1.572c0,0,0,2.264,0,2.307c0,0.058,0,0.074,0.048,0.074c0.074,0,0.253,0,0.253,0v0.236
				c0,0-0.559,0-0.389,0c0,0-0.166,0.017-0.166-0.188l-0.005-2.434L37.297,1.572z"/>
			<path fill="#FFFFFF" d="M38.311,1.791c0,0-0.206,0-0.306,0c-0.065,0-0.074,0.026-0.074,0.065c0,0.074,0,0.136,0,0.21
				c0,0.205,0,0.603,0,0.603h0.319v0.232h-0.323v1c0,0.039,0,0.052,0.092,0.052c0.035,0,0.31,0,0.31,0v0.236c0,0-0.328,0-0.489,0
				c-0.061,0-0.127-0.039-0.149-0.109c-0.022-0.074-0.013-0.184-0.013-0.184V1.848c0-0.101,0.004-0.161,0.043-0.214
				c0.062-0.074,0.105-0.07,0.14-0.07h0.45V1.791z"/>
			<path fill="#FFFFFF" d="M39.119,1.844c0.044,0.14,0.04,0.341,0.035,0.493h-0.253c-0.013-0.196,0.039-0.472-0.07-0.555
				C38.783,1.77,38.735,1.77,38.7,1.821c-0.04,0.079-0.031,0.18-0.04,0.275v1.704c0.004,0.057,0.013,0.113,0.035,0.157
				c0.048,0.048,0.135,0.053,0.162,0.009c0.057-0.114,0.044-0.28,0.044-0.433c0.004-0.118,0-0.258,0.004-0.362h0.253
				c-0.009,0.332,0.039,0.747-0.136,0.956c-0.14,0.153-0.367,0.136-0.502-0.022c-0.114-0.17-0.118-0.45-0.122-0.717l0.004-1.17
				c-0.004-0.245,0.044-0.503,0.166-0.607c0.14-0.105,0.333-0.105,0.459,0.039C39.067,1.708,39.102,1.77,39.119,1.844z"/>
			<path fill="#FFFFFF" d="M39.937,1.568v0.245h-0.228v2.376h-0.258V1.817h-0.223V1.568H39.937z"/>
			<path fill="#FFFFFF" d="M40.417,1.568c0.179,0,0.253,0.07,0.292,0.175c0.031,0.109,0.031,0.244,0.031,0.371
				c-0.004,0.28,0.026,0.651-0.144,0.765c0.061,0.044,0.126,0.148,0.135,0.271c0.009,0.34,0.004,1.039,0.004,1.039h-0.245
				c0,0,0-0.651-0.009-0.987c-0.009-0.083-0.043-0.161-0.092-0.188c-0.039-0.03-0.148-0.03-0.148-0.03v1.205h-0.249V1.568H40.417z
				 M40.404,1.809c-0.048-0.026-0.114-0.026-0.162-0.013v0.943c0.061,0.013,0.131,0.009,0.188-0.026
				c0.07-0.083,0.052-0.253,0.061-0.38c-0.004-0.157,0-0.288-0.018-0.42C40.456,1.839,40.43,1.826,40.404,1.809z"/>
			<path fill="#FFFFFF" d="M41.531,3.827c0,0,0.013,0.179-0.101,0.284c-0.14,0.14-0.345,0.131-0.489,0.013
				c-0.131-0.105-0.127-0.293-0.127-0.293V1.927c0,0-0.004-0.189,0.127-0.293c0.144-0.118,0.354-0.127,0.494,0.013
				c0.118,0.118,0.096,0.302,0.096,0.302V3.827z M41.291,1.927c0-0.092-0.022-0.145-0.109-0.145c-0.092,0-0.105,0.057-0.1,0.145
				c-0.004,0.235,0,1.9,0,1.9c-0.004,0.101,0.017,0.152,0.1,0.144c0.087,0,0.109-0.052,0.109-0.144
				C41.291,3.827,41.291,1.996,41.291,1.927z"/>
		</g>
		<g>
			<path fill="#FFFFFF" d="M44.655,1.717c0.127-0.205,0.319-0.219,0.433-0.096c0.096,0.087,0.148,0.279,0.148,0.48v2.088h-0.254
				V1.957c-0.008-0.136-0.043-0.161-0.104-0.161c-0.062,0-0.109,0.025-0.109,0.161v2.232h-0.258V1.953
				c0-0.105-0.044-0.145-0.104-0.145c-0.062,0-0.101,0.039-0.109,0.145v2.236h-0.249V2.123c0-0.21,0.021-0.419,0.14-0.511
				C44.327,1.503,44.542,1.512,44.655,1.717z"/>
			<path fill="#FFFFFF" d="M45.953,1.791c0,0-0.206,0-0.307,0c-0.064,0-0.074,0.026-0.074,0.065c0,0.074,0,0.136,0,0.21
				c0,0.205,0,0.603,0,0.603h0.319v0.232h-0.323v1c0,0.039,0,0.052,0.092,0.052c0.035,0,0.31,0,0.31,0v0.236c0,0-0.328,0-0.49,0
				c-0.061,0-0.127-0.039-0.148-0.109c-0.022-0.074-0.013-0.184-0.013-0.184V1.848c0-0.101,0.004-0.161,0.044-0.214
				c0.061-0.074,0.104-0.07,0.139-0.07h0.451V1.791z"/>
			<path fill="#FFFFFF" d="M46.791,1.844c0.044,0.14,0.04,0.341,0.035,0.493h-0.253c-0.014-0.196,0.039-0.472-0.07-0.555
				c-0.048-0.013-0.096-0.013-0.131,0.039c-0.04,0.079-0.03,0.18-0.04,0.275v1.704c0.005,0.057,0.014,0.113,0.035,0.157
				c0.049,0.048,0.136,0.053,0.162,0.009c0.057-0.114,0.044-0.28,0.044-0.433c0.004-0.118,0-0.258,0.004-0.362h0.254
				c-0.009,0.332,0.039,0.747-0.136,0.956c-0.14,0.153-0.367,0.136-0.503-0.022c-0.112-0.17-0.117-0.45-0.122-0.717l0.005-1.17
				c-0.005-0.245,0.043-0.503,0.166-0.607c0.14-0.105,0.332-0.105,0.458,0.039C46.739,1.708,46.773,1.77,46.791,1.844z"/>
			<path fill="#FFFFFF" d="M47.25,1v1.464h0.306V1h0.315v3.495h-0.319V2.787H47.25v1.708h-0.318V1H47.25z"/>
		</g>
	</g>
</g>
</svg>
