<?xml version="1.0" encoding="utf-8"?>
<!-- Generator: Adobe Illustrator 17.1.0, SVG Export Plug-In . SVG Version: 6.00 Build 0)  -->
<!DOCTYPE svg PUBLIC "-//W3C//DTD SVG 1.1//EN" "http://www.w3.org/Graphics/SVG/1.1/DTD/svg11.dtd">
<svg version="1.1" xmlns="http://www.w3.org/2000/svg" xmlns:xlink="http://www.w3.org/1999/xlink" x="0px" y="0px"
	 viewBox="0 0 42 42" enable-background="new 0 0 42 42" xml:space="preserve">
<g id="Accent_Striping">
	<polygon fill="#FFFFFF" points="25.5,1 25.5,2 40,2 40,40 2,40 2,2 16.5,2 16.5,1 1,1 1,41 41,41 41,1 	"/>
</g>
<g id="Captions">
	<g>
		<path fill="#FFFFFF" d="M21.397,0.954c-0.332,0-0.602,0.269-0.602,0.602c0,0.332,0.269,0.602,0.602,0.602
			c0.332,0,0.601-0.27,0.601-0.602C21.998,1.223,21.729,0.954,21.397,0.954z M21.274,1.982l-0.15-0.119V1.248l0.15-0.119V1.982z
			 M21.473,2.016l-0.074,0.06h-0.002l-0.074-0.06v-0.92l0.074-0.06h0.002l0.074,0.06V2.016z M21.67,1.863l-0.15,0.119V1.129
			l0.15,0.119V1.863z"/>
		<g>
			<path fill="#FFFFFF" d="M18.461,0.775c0,0-0.129,0-0.189,0c-0.043,0-0.049,0.018-0.049,0.047c0,0.048,0,0.089,0,0.137
				c0,0.139,0,0.404,0,0.404h0.201v0.153h-0.203v0.666c0,0.028,0,0.035,0.057,0.035c0.024,0,0.195,0,0.195,0v0.157
				c0,0-0.207,0-0.307,0c-0.037,0-0.078-0.023-0.092-0.072c-0.014-0.05-0.01-0.122-0.01-0.122V0.814
				c0-0.066,0.004-0.106,0.029-0.141c0.037-0.051,0.066-0.049,0.086-0.049h0.281V0.775z"/>
			<path fill="#FFFFFF" d="M18.649,0.911c0,0,0,1.132,0,1.154c0,0.028,0,0.037,0.024,0.037c0.037,0,0.127,0,0.127,0V2.22
				c0,0-0.279,0-0.193,0c0,0-0.084,0.009-0.084-0.094L18.52,0.909L18.649,0.911z"/>
			<path fill="#FFFFFF" d="M19.157,1.02c0,0-0.104,0-0.154,0c-0.031,0-0.037,0.013-0.037,0.033c0,0.037,0,0.067,0,0.105
				c0,0.104,0,0.302,0,0.302h0.16v0.116h-0.162v0.5c0,0.02,0,0.026,0.047,0.026c0.017,0,0.154,0,0.154,0V2.22c0,0-0.164,0-0.244,0
				c-0.031,0-0.064-0.02-0.074-0.055c-0.012-0.037-0.008-0.091-0.008-0.091V1.049c0-0.05,0.004-0.08,0.023-0.107
				c0.029-0.037,0.053-0.034,0.068-0.034h0.226V1.02z"/>
			<path fill="#FFFFFF" d="M19.561,1.047c0.021,0.07,0.02,0.17,0.018,0.247h-0.127c-0.008-0.099,0.02-0.236-0.035-0.278
				C19.391,1.01,19.368,1.01,19.35,1.036c-0.019,0.039-0.016,0.089-0.019,0.138v0.852c0.002,0.028,0.006,0.057,0.017,0.079
				c0.023,0.023,0.068,0.026,0.08,0.004c0.029-0.057,0.024-0.14,0.024-0.216c0.002-0.059,0-0.129,0.002-0.182h0.127
				C19.575,1.877,19.6,2.085,19.512,2.19c-0.07,0.076-0.184,0.067-0.252-0.011C19.204,2.094,19.202,1.953,19.2,1.82l0.002-0.586
				c-0.002-0.122,0.021-0.251,0.084-0.303c0.068-0.053,0.166-0.053,0.229,0.02C19.534,0.979,19.551,1.01,19.561,1.047z"/>
			<path fill="#FFFFFF" d="M19.969,0.909v0.122h-0.113V2.22h-0.129V1.033h-0.111V0.909H19.969z"/>
			<path fill="#FFFFFF" d="M20.209,0.909c0.09,0,0.127,0.035,0.147,0.087c0.016,0.055,0.016,0.123,0.016,0.185
				c-0.002,0.141,0.012,0.326-0.072,0.383c0.029,0.021,0.063,0.074,0.066,0.136c0.006,0.171,0.004,0.52,0.004,0.52h-0.123
				c0,0,0-0.325-0.004-0.493c-0.006-0.042-0.021-0.081-0.047-0.094c-0.02-0.016-0.074-0.016-0.074-0.016V2.22h-0.125V0.909H20.209z
				 M20.204,1.029c-0.025-0.014-0.059-0.014-0.082-0.006v0.471c0.031,0.008,0.066,0.005,0.094-0.013
				c0.035-0.042,0.027-0.126,0.031-0.19c-0.002-0.078,0-0.143-0.01-0.209C20.229,1.045,20.215,1.038,20.204,1.029z"/>
			<path fill="#FFFFFF" d="M20.766,2.039c0,0,0.008,0.089-0.051,0.142c-0.068,0.07-0.172,0.065-0.244,0.007
				c-0.065-0.053-0.063-0.147-0.063-0.147V1.088c0,0-0.002-0.094,0.063-0.147c0.072-0.059,0.178-0.063,0.248,0.007
				c0.059,0.06,0.047,0.151,0.047,0.151V2.039z M20.647,1.088c0-0.045-0.012-0.072-0.055-0.072c-0.047,0-0.053,0.029-0.051,0.072
				c-0.002,0.119,0,0.951,0,0.951c-0.002,0.05,0.008,0.076,0.051,0.072c0.043,0,0.055-0.026,0.055-0.072
				C20.647,2.039,20.647,1.123,20.647,1.088z"/>
		</g>
		<g>
			<path fill="#FFFFFF" d="M22.327,0.983c0.064-0.102,0.16-0.109,0.217-0.048c0.048,0.043,0.074,0.14,0.074,0.24V2.22h-0.127V1.104
				c-0.004-0.067-0.021-0.08-0.052-0.08c-0.031,0-0.055,0.013-0.055,0.08V2.22h-0.129V1.102c0-0.053-0.023-0.072-0.053-0.072
				c-0.03,0-0.051,0.02-0.055,0.072V2.22h-0.125V1.186c0-0.104,0.012-0.21,0.07-0.255C22.164,0.877,22.27,0.881,22.327,0.983z"/>
			<path fill="#FFFFFF" d="M22.977,1.02c0,0-0.103,0-0.153,0c-0.032,0-0.037,0.013-0.037,0.033c0,0.037,0,0.067,0,0.105
				c0,0.104,0,0.302,0,0.302h0.16v0.116h-0.162v0.5c0,0.02,0,0.026,0.046,0.026c0.018,0,0.155,0,0.155,0V2.22c0,0-0.164,0-0.245,0
				c-0.03,0-0.063-0.02-0.074-0.055c-0.011-0.037-0.006-0.091-0.006-0.091V1.049c0-0.05,0.002-0.08,0.021-0.107
				c0.03-0.037,0.053-0.034,0.069-0.034h0.226V1.02z"/>
			<path fill="#FFFFFF" d="M23.395,1.047c0.023,0.07,0.021,0.17,0.018,0.247h-0.126c-0.007-0.099,0.019-0.236-0.035-0.278
				c-0.025-0.006-0.048-0.006-0.066,0.021c-0.02,0.039-0.016,0.089-0.02,0.138v0.852c0.003,0.028,0.007,0.057,0.018,0.079
				c0.024,0.023,0.068,0.026,0.081,0.004c0.028-0.057,0.023-0.14,0.023-0.216c0.002-0.059,0-0.129,0.002-0.182h0.127
				c-0.005,0.166,0.019,0.374-0.068,0.479c-0.069,0.076-0.184,0.067-0.251-0.011c-0.057-0.085-0.059-0.226-0.061-0.358l0.003-0.586
				c-0.003-0.122,0.021-0.251,0.083-0.303c0.069-0.053,0.166-0.053,0.229,0.02C23.37,0.979,23.387,1.01,23.395,1.047z"/>
			<path fill="#FFFFFF" d="M23.625,0.625v0.732h0.153V0.625h0.157v1.748h-0.159V1.52h-0.151v0.853h-0.159V0.625H23.625z"/>
		</g>
	</g>
	<g>
		<path fill="#FFFFFF" d="M4.377,24.5l2.137-0.017c1.211-0.009,2.137,0.259,2.137,1.8c0,1.033-0.56,1.691-1.141,1.899
			c-0.471,0.175-1.736,0.167-2.304,0.175l-0.491,2.142H3L4.377,24.5z M5.457,27.25h0.256c0.255,0,0.657-0.025,0.809-0.116
			c0.27-0.167,0.471-0.501,0.471-0.809c0-0.626-0.387-0.675-0.775-0.675H5.823L5.457,27.25z"/>
		<path fill="#FFFFFF" d="M8.684,30.499l1.383-5.999h1.716l-1.383,5.999H8.684z"/>
		<path fill="#FFFFFF" d="M13.934,25.817h-1.646l0.298-1.317h4.931l-0.304,1.317h-1.563l-1.08,4.682h-1.716L13.934,25.817z"/>
		<path fill="#FFFFFF" d="M21.915,27.916c-0.29,1.175-0.601,2.726-2.842,2.726c-1.301,0-2.152-0.493-2.152-1.784
			c0-0.491,0.381-2.832,0.996-3.616c0.374-0.483,1.065-0.883,2.193-0.883c1.26,0,2.074,0.534,2.074,1.834
			c0,0.266-0.047,0.532-0.103,0.791h-1.695c0.063-0.225,0.132-0.467,0.132-0.7c0-0.408-0.159-0.675-0.56-0.675
			c-0.374,0-0.67,0.301-0.858,1.059l-0.379,1.499c-0.076,0.3-0.104,0.491-0.104,0.709c0,0.349,0.249,0.516,0.525,0.516
			c0.74,0,0.899-0.874,1.017-1.475H21.915z"/>
		<path fill="#FFFFFF" d="M23.722,24.5h1.715l-0.546,2.366h1.218l0.546-2.366h1.716l-1.385,5.999h-1.714l0.58-2.524h-1.218
			l-0.581,2.524h-1.715L23.722,24.5z"/>
		<path fill="#FFFFFF" d="M29.592,24.5h4.447l-0.283,1.25h-2.718l-0.256,1.142h1.402l-0.248,1.107h-1.404l-0.276,1.251h2.795
			l-0.284,1.249h-4.523L29.592,24.5z"/>
		<path fill="#FFFFFF" d="M37.449,26.441c0.035-0.108,0.035-0.191,0.035-0.267c0-0.35-0.277-0.566-0.629-0.566
			c-0.306,0-0.54,0.166-0.54,0.458c0,0.908,2.179,0.649,2.179,2.458c0,1.267-1.147,2.117-2.726,2.117
			c-1.196,0-1.999-0.567-1.999-1.767c0-0.175,0.035-0.334,0.049-0.509h1.729c-0.021,0.134-0.049,0.267-0.049,0.399
			c0,0.434,0.276,0.625,0.567,0.625c0.318,0,0.643-0.232,0.643-0.607c0-0.959-2.123-0.833-2.123-2.6
			c0-1.143,0.996-1.825,2.338-1.825c1.286,0,2.076,0.566,2.076,1.783c0,0.1-0.015,0.199-0.015,0.3H37.449z"/>
	</g>
</g>
</svg>
