<?xml version="1.0" encoding="utf-8"?>
<!-- Generator: Adobe Illustrator 17.1.0, SVG Export Plug-In . SVG Version: 6.00 Build 0)  -->
<!DOCTYPE svg PUBLIC "-//W3C//DTD SVG 1.1//EN" "http://www.w3.org/Graphics/SVG/1.1/DTD/svg11.dtd">
<svg version="1.1" xmlns="http://www.w3.org/2000/svg" xmlns:xlink="http://www.w3.org/1999/xlink" x="0px" y="0px"
	 viewBox="0 0 96 72" enable-background="new 0 0 96 72" xml:space="preserve">
<g id="Accent_Striping">
	<path fill="#FFFFFF" d="M0.75,0.75v70.5h94.5V0.75H0.75z M94.5,70.5h-93v-69h93V70.5z"/>
	<path fill="#FFFFFF" d="M23.5,0.75v18.5h49V0.75H23.5z M71.75,18.5h-47.5v-17h47.5V18.5z"/>
</g>
<g id="Captions">
	<g>
		<path fill="#FFFFFF" d="M65.874,22.994h1.698l-0.541,2.371h1.205l0.541-2.371h1.697l-1.369,6.012h-1.698l0.575-2.529h-1.205
			l-0.575,2.529h-1.698L65.874,22.994z"/>
		<path fill="#FFFFFF" d="M70.577,27.344c0-0.5,0.356-2.855,1.192-3.807c0.438-0.502,1.246-0.685,2.061-0.685
			c1.144,0,1.999,0.484,1.999,1.646c0,0.677-0.391,3.132-1.239,3.966c-0.466,0.459-1.232,0.685-2.061,0.685
			C71.406,29.148,70.577,28.639,70.577,27.344z M74.117,24.723c0-0.426-0.226-0.618-0.541-0.618c-0.369,0-0.541,0.167-0.691,0.576
			c-0.396,1.06-0.609,2.405-0.609,2.597c0,0.426,0.227,0.618,0.541,0.618c0.37,0,0.541-0.167,0.691-0.576
			C73.658,26.902,74.117,25.082,74.117,24.723z"/>
		<path fill="#FFFFFF" d="M77.35,22.994h2.313l0.034,3.733h0.014l1.609-3.733h2.554l-1.417,6.012h-1.616l1.123-4.533l-0.014-0.018
			l-2.149,4.551h-1.253l-0.014-4.551h-0.014l-1.014,4.551h-1.644L77.35,22.994z"/>
		<path fill="#FFFFFF" d="M85.093,22.994h4.403l-0.281,1.252h-2.69l-0.254,1.145h1.391l-0.247,1.11h-1.39l-0.274,1.253h2.767
			l-0.28,1.252h-4.479L85.093,22.994z"/>
	</g>
	<g>
		<path fill="#FFFFFF" d="M8.613,28.162c-0.267,0.393-0.657,0.986-1.842,0.986c-0.918,0-1.78-0.502-1.78-1.621
			c0-0.926,0.39-2.463,0.746-3.398c0.357-0.935,1.109-1.277,2.424-1.277c1.191,0,2.198,0.318,2.198,1.612
			c0,0.275-0.069,0.551-0.137,0.809H8.586c0.048-0.184,0.096-0.375,0.096-0.568c0-0.3-0.157-0.601-0.555-0.601
			c-0.513,0-0.808,0.393-0.965,0.91c-0.288,0.91-0.493,2.079-0.493,2.296c0,0.426,0.294,0.585,0.568,0.585c0.65,0,1-0.685,1-1.036
			H7.442l0.247-1.109h2.431l-0.74,3.256H8.798L8.613,28.162z"/>
		<path fill="#FFFFFF" d="M15.7,26.259c-0.37,1.528-0.616,2.89-2.629,2.89c-1.527,0-2.191-0.794-2.191-1.871
			c0-0.451,0.11-0.901,0.219-1.336l0.685-2.947h1.726l-0.726,2.989c-0.137,0.542-0.226,1.002-0.226,1.169
			c0,0.301,0.157,0.609,0.555,0.609c0.616,0,0.767-0.951,0.917-1.611l0.739-3.156h1.726L15.7,26.259z"/>
		<path fill="#FFFFFF" d="M17.85,22.994h4.403l-0.281,1.252h-2.691l-0.253,1.145h1.39l-0.247,1.11h-1.39l-0.274,1.253h2.767
			l-0.281,1.252h-4.478L17.85,22.994z"/>
		<path fill="#FFFFFF" d="M25.627,24.94c0.035-0.108,0.035-0.192,0.035-0.268c0-0.35-0.274-0.567-0.623-0.567
			c-0.301,0-0.534,0.167-0.534,0.46c0,0.91,2.157,0.65,2.157,2.463c0,1.27-1.137,2.121-2.698,2.121
			c-1.185,0-1.979-0.568-1.979-1.771c0-0.175,0.034-0.334,0.048-0.51h1.711c-0.021,0.134-0.048,0.267-0.048,0.401
			c0,0.434,0.274,0.626,0.562,0.626c0.315,0,0.637-0.233,0.637-0.609c0-0.96-2.102-0.835-2.102-2.605
			c0-1.144,0.986-1.829,2.314-1.829c1.273,0,2.054,0.568,2.054,1.787c0,0.101-0.014,0.201-0.014,0.301H25.627z"/>
		<path fill="#FFFFFF" d="M29.462,24.313h-1.63l0.295-1.319h4.882l-0.301,1.319H31.16l-1.068,4.692h-1.698L29.462,24.313z"/>
	</g>
	<g>
		<path fill="#FFFFFF" d="M40.513,49.006l1.37-6.012h1.698l-1.37,6.012H40.513z"/>
		<path fill="#FFFFFF" d="M44.957,42.994h1.691l0.616,3.74h0.014l0.698-3.74h1.554l-1.39,6.012h-1.575l-0.691-3.949H45.86
			l-0.705,3.949h-1.616L44.957,42.994z"/>
		<path fill="#FFFFFF" d="M50.914,42.994h1.69l0.616,3.74h0.014l0.699-3.74h1.554l-1.39,6.012h-1.575l-0.691-3.949h-0.014
			l-0.705,3.949h-1.616L50.914,42.994z"/>
	</g>
	<g>
		<path fill="#FFFFFF" d="M3.586,61.006l1.369-6.012l2.458-0.017c1.137,0,1.938,0.2,1.938,1.503c0,0.943-0.657,1.444-0.951,1.628
			c0.171,0.192,0.458,0.602,0.458,1.169c0,1.745-1.602,1.745-2.725,1.745L3.586,61.006z M5.544,59.745
			c0.116,0.009,0.247,0.024,0.37,0.024c0.404,0,1.267,0,1.267-0.901c0-0.426-0.26-0.609-0.76-0.609
			c-0.185,0-0.363,0.017-0.547,0.042L5.544,59.745z M6.085,57.365c0.178,0.025,0.349,0.033,0.534,0.033
			c0.438,0,1.054-0.133,1.054-0.701c0-0.501-0.383-0.518-0.883-0.518c-0.15,0-0.287,0.008-0.438,0.008L6.085,57.365z"/>
		<path fill="#FFFFFF" d="M9.05,61.006l3.143-6.012h1.91l0.391,6.012h-1.5l-0.034-1.027h-1.691l-0.452,1.027H9.05z M12.939,59.102
			l-0.068-2.713h-0.014l-1.198,2.713H12.939z"/>
		<path fill="#FFFFFF" d="M16.698,54.994h1.698l-1.054,4.76h2.499l-0.274,1.252H15.37L16.698,54.994z"/>
		<path fill="#FFFFFF" d="M21.771,54.994h1.698l-1.054,4.76h2.499l-0.274,1.252h-4.197L21.771,54.994z"/>
	</g>
	<g>
		<path fill="#FFFFFF" d="M36.168,56.939c0.034-0.108,0.034-0.191,0.034-0.268c0-0.35-0.274-0.567-0.623-0.567
			c-0.301,0-0.534,0.167-0.534,0.46c0,0.91,2.157,0.65,2.157,2.463c0,1.27-1.137,2.121-2.698,2.121
			c-1.184,0-1.978-0.568-1.978-1.771c0-0.175,0.034-0.334,0.048-0.51h1.711c-0.021,0.134-0.048,0.268-0.048,0.401
			c0,0.434,0.274,0.626,0.562,0.626c0.315,0,0.637-0.233,0.637-0.609c0-0.96-2.102-0.835-2.102-2.605
			c0-1.144,0.985-1.829,2.314-1.829c1.273,0,2.054,0.568,2.054,1.787c0,0.101-0.014,0.201-0.014,0.301H36.168z"/>
		<path fill="#FFFFFF" d="M40.003,56.313h-1.63l0.294-1.319h4.882l-0.301,1.319h-1.547l-1.068,4.692h-1.698L40.003,56.313z"/>
		<path fill="#FFFFFF" d="M44.351,54.994l2.547-0.017c1.048,0,1.849,0.259,1.849,1.661c0,1.219-0.999,1.504-1.506,1.596v0.016
			c0.685,0.469,0.52,1.504,0.849,2.756h-1.896c0-0.092-0.007-0.184-0.007-0.268c0-0.441,0.034-0.885,0.034-1.327
			c0-0.585-0.219-0.776-0.746-0.776c-0.082,0-0.178,0.008-0.26,0.017l-0.527,2.354h-1.698L44.351,54.994z M45.467,57.558
			c0.191,0.033,0.397,0.05,0.596,0.05c0.513,0,1.006-0.334,1.006-0.877c0-0.451-0.26-0.643-0.739-0.643
			c-0.185,0-0.37,0.017-0.548,0.066L45.467,57.558z"/>
		<path fill="#FFFFFF" d="M48.877,61.006l1.369-6.012h1.697l-1.369,6.012H48.877z"/>
		<path fill="#FFFFFF" d="M53.271,54.994h1.699l-0.596,2.68l0.014,0.018l1.883-2.697h2.04l-2.308,3.023l1.019,2.989H55.21
			l-0.857-3.197H54.34l-0.698,3.197h-1.698L53.271,54.994z"/>
		<path fill="#FFFFFF" d="M59.071,54.994h4.403l-0.281,1.252h-2.691l-0.253,1.144h1.39l-0.246,1.11h-1.391l-0.274,1.253h2.766
			l-0.28,1.252h-4.478L59.071,54.994z"/>
	</g>
	<g>
		<path fill="#FFFFFF" d="M73.188,59.344c0-0.5,0.356-2.855,1.191-3.807c0.438-0.502,1.246-0.686,2.062-0.686
			c1.144,0,1.999,0.484,1.999,1.646c0,0.677-0.391,3.132-1.239,3.966c-0.466,0.459-1.232,0.686-2.061,0.686
			C74.017,61.148,73.188,60.639,73.188,59.344z M76.729,56.723c0-0.426-0.227-0.618-0.541-0.618c-0.37,0-0.541,0.167-0.691,0.576
			c-0.398,1.061-0.609,2.405-0.609,2.597c0,0.426,0.225,0.618,0.54,0.618c0.37,0,0.541-0.167,0.692-0.576
			C76.269,58.902,76.729,57.082,76.729,56.723z"/>
		<path fill="#FFFFFF" d="M83.78,58.259c-0.37,1.528-0.616,2.89-2.63,2.89c-1.526,0-2.19-0.794-2.19-1.871
			c0-0.451,0.11-0.901,0.22-1.336l0.684-2.947h1.727l-0.727,2.989c-0.137,0.542-0.226,1.002-0.226,1.169
			c0,0.301,0.157,0.609,0.555,0.609c0.616,0,0.767-0.951,0.917-1.611l0.74-3.156h1.725L83.78,58.259z"/>
		<path fill="#FFFFFF" d="M86.766,56.313h-1.63l0.294-1.319h4.883l-0.302,1.319h-1.548l-1.067,4.692h-1.698L86.766,56.313z"/>
	</g>
	<g>
		<path fill="#FFFFFF" d="M31.919,64.908c-0.665,0-1.203,0.538-1.203,1.203c0,0.664,0.539,1.203,1.203,1.203
			c0.664,0,1.204-0.539,1.204-1.203C33.122,65.446,32.583,64.908,31.919,64.908z M31.672,66.966l-0.301-0.239v-1.23l0.301-0.239
			V66.966z M32.069,67.031l-0.15,0.119h-0.001l-0.15-0.119v-1.84l0.15-0.119h0.001l0.15,0.119V67.031z M32.466,66.727l-0.301,0.239
			v-1.709l0.301,0.239V66.727z"/>
		<g>
			<path fill="#FFFFFF" d="M26.046,64.552c0,0-0.258,0-0.38,0c-0.083,0-0.096,0.035-0.096,0.092c0,0.097,0,0.18,0,0.275
				c0,0.275,0,0.809,0,0.809h0.402v0.306h-0.406v1.333c0,0.057,0,0.069,0.113,0.069c0.048,0,0.389,0,0.389,0v0.314
				c0,0-0.411,0-0.612,0c-0.074,0-0.157-0.048-0.184-0.144c-0.026-0.101-0.018-0.245-0.018-0.245v-2.73
				c0-0.136,0.004-0.214,0.057-0.284c0.074-0.101,0.131-0.097,0.17-0.097h0.563V64.552z"/>
			<path fill="#FFFFFF" d="M26.422,64.823c0,0,0,2.263,0,2.307c0,0.057,0,0.074,0.048,0.074c0.074,0,0.254,0,0.254,0v0.236
				c0,0-0.559,0-0.389,0c0,0-0.166,0.017-0.166-0.188l-0.004-2.434L26.422,64.823z"/>
			<path fill="#FFFFFF" d="M27.436,65.041c0,0-0.206,0-0.306,0c-0.065,0-0.074,0.026-0.074,0.066c0,0.074,0,0.135,0,0.209
				c0,0.206,0,0.604,0,0.604h0.319v0.231h-0.323v1c0,0.04,0,0.053,0.092,0.053c0.035,0,0.31,0,0.31,0v0.236c0,0-0.328,0-0.489,0
				c-0.061,0-0.127-0.04-0.149-0.109c-0.022-0.074-0.013-0.184-0.013-0.184v-2.049c0-0.101,0.004-0.162,0.043-0.215
				c0.062-0.074,0.105-0.069,0.14-0.069h0.45V65.041z"/>
			<path fill="#FFFFFF" d="M28.244,65.094c0.044,0.14,0.04,0.341,0.035,0.494h-0.253c-0.013-0.197,0.039-0.473-0.07-0.556
				c-0.048-0.013-0.096-0.013-0.131,0.04c-0.039,0.078-0.031,0.179-0.039,0.275v1.703c0.004,0.057,0.013,0.114,0.035,0.157
				c0.048,0.049,0.135,0.053,0.162,0.009c0.057-0.113,0.044-0.279,0.044-0.433c0.004-0.117,0-0.257,0.004-0.362h0.253
				c-0.009,0.332,0.039,0.747-0.136,0.957c-0.14,0.153-0.367,0.136-0.502-0.021c-0.114-0.171-0.118-0.45-0.122-0.717l0.004-1.171
				c-0.004-0.245,0.044-0.503,0.166-0.607c0.14-0.104,0.333-0.104,0.459,0.039C28.192,64.958,28.227,65.02,28.244,65.094z"/>
			<path fill="#FFFFFF" d="M29.062,64.818v0.245h-0.228v2.377h-0.258v-2.373h-0.223v-0.249H29.062z"/>
			<path fill="#FFFFFF" d="M29.542,64.818c0.179,0,0.253,0.07,0.292,0.175c0.031,0.109,0.031,0.245,0.031,0.371
				c-0.004,0.28,0.026,0.651-0.144,0.766c0.061,0.043,0.126,0.147,0.135,0.271c0.009,0.341,0.004,1.04,0.004,1.04h-0.245
				c0,0,0-0.651-0.009-0.988c-0.009-0.083-0.043-0.161-0.092-0.188c-0.039-0.03-0.148-0.03-0.148-0.03v1.206h-0.249v-2.622H29.542z
				 M29.529,65.059c-0.048-0.026-0.114-0.026-0.162-0.013v0.943c0.061,0.014,0.131,0.009,0.188-0.026
				c0.07-0.083,0.052-0.253,0.061-0.38c-0.004-0.157,0-0.288-0.018-0.419C29.581,65.09,29.555,65.076,29.529,65.059z"/>
			<path fill="#FFFFFF" d="M30.656,67.077c0,0,0.013,0.18-0.101,0.284c-0.14,0.14-0.345,0.131-0.489,0.013
				c-0.131-0.104-0.127-0.292-0.127-0.292v-1.905c0,0-0.004-0.188,0.127-0.293c0.144-0.117,0.354-0.126,0.494,0.014
				c0.118,0.118,0.096,0.301,0.096,0.301V67.077z M30.416,65.177c0-0.092-0.022-0.145-0.109-0.145c-0.092,0-0.105,0.058-0.101,0.145
				c-0.004,0.236,0,1.9,0,1.9c-0.004,0.101,0.017,0.153,0.101,0.145c0.087,0,0.109-0.053,0.109-0.145
				C30.416,67.077,30.416,65.247,30.416,65.177z"/>
		</g>
		<g>
			<path fill="#FFFFFF" d="M33.78,64.967c0.127-0.205,0.319-0.218,0.433-0.096c0.096,0.087,0.148,0.279,0.148,0.48v2.089h-0.254
				v-2.233c-0.008-0.135-0.043-0.161-0.104-0.161c-0.062,0-0.109,0.026-0.109,0.161v2.233h-0.258v-2.237
				c0-0.104-0.044-0.145-0.104-0.145c-0.062,0-0.101,0.04-0.109,0.145v2.237h-0.249v-2.067c0-0.209,0.021-0.419,0.14-0.511
				C33.452,64.753,33.667,64.762,33.78,64.967z"/>
			<path fill="#FFFFFF" d="M35.078,65.041c0,0-0.206,0-0.306,0c-0.065,0-0.075,0.026-0.075,0.066c0,0.074,0,0.135,0,0.209
				c0,0.206,0,0.604,0,0.604h0.319v0.231h-0.323v1c0,0.04,0,0.053,0.092,0.053c0.035,0,0.311,0,0.311,0v0.236c0,0-0.328,0-0.489,0
				c-0.062,0-0.127-0.04-0.149-0.109c-0.021-0.074-0.013-0.184-0.013-0.184v-2.049c0-0.101,0.004-0.162,0.044-0.215
				c0.061-0.074,0.104-0.069,0.14-0.069h0.45V65.041z"/>
			<path fill="#FFFFFF" d="M35.917,65.094c0.044,0.14,0.039,0.341,0.035,0.494h-0.254c-0.013-0.197,0.039-0.473-0.07-0.556
				c-0.048-0.013-0.096-0.013-0.131,0.04c-0.039,0.078-0.03,0.179-0.039,0.275v1.703c0.005,0.057,0.013,0.114,0.035,0.157
				c0.048,0.049,0.135,0.053,0.161,0.009c0.058-0.113,0.044-0.279,0.044-0.433c0.005-0.117,0-0.257,0.005-0.362h0.253
				c-0.009,0.332,0.039,0.747-0.136,0.957c-0.14,0.153-0.366,0.136-0.502-0.021c-0.113-0.171-0.118-0.45-0.122-0.717L35.2,65.47
				c-0.004-0.245,0.044-0.503,0.166-0.607c0.14-0.104,0.332-0.104,0.459,0.039C35.864,64.958,35.899,65.02,35.917,65.094z"/>
			<path fill="#FFFFFF" d="M36.376,64.25v1.464h0.306V64.25h0.315v3.496h-0.319v-1.708h-0.301v1.708h-0.319V64.25H36.376z"/>
		</g>
	</g>
	<g>
		<circle fill="#FFFFFF" cx="47.875" cy="7.5" r="1.25"/>
		<circle fill="#FFFFFF" cx="47.875" cy="12.5" r="1.25"/>
	</g>
</g>
</svg>
