<?xml version="1.0" encoding="utf-8"?>
<!-- Generator: Adobe Illustrator 17.1.0, SVG Export Plug-In . SVG Version: 6.00 Build 0)  -->
<!DOCTYPE svg PUBLIC "-//W3C//DTD SVG 1.1//EN" "http://www.w3.org/Graphics/SVG/1.1/DTD/svg11.dtd">
<svg version="1.1" xmlns="http://www.w3.org/2000/svg" xmlns:xlink="http://www.w3.org/1999/xlink" x="0px" y="0px"
	 viewBox="0 0 120 60" enable-background="new 0 0 120 60" xml:space="preserve">
<g id="Accent_Striping">
	<path fill="#FFFFFF" d="M1,1v58h118V1H1z M118,58H2V2h116V58z"/>
</g>
<g id="Captions">
	<g>
		<path fill="#FFFFFF" d="M7.351,33.525c-0.273,0.458-0.674,1.15-1.888,1.15c-0.941,0-1.825-0.585-1.825-1.892
			c0-1.082,0.4-2.876,0.765-3.968c0.365-1.092,1.138-1.492,2.485-1.492c1.221,0,2.253,0.371,2.253,1.882
			c0,0.322-0.07,0.643-0.14,0.946H7.323c0.049-0.215,0.098-0.439,0.098-0.663c0-0.351-0.161-0.702-0.568-0.702
			c-0.526,0-0.828,0.458-0.99,1.063c-0.295,1.063-0.505,2.428-0.505,2.682c0,0.496,0.302,0.682,0.582,0.682
			c0.667,0,1.025-0.799,1.025-1.209H6.15l0.253-1.296h2.492L8.137,34.51H7.54L7.351,33.525z"/>
		<path fill="#FFFFFF" d="M14.616,31.303c-0.379,1.783-0.632,3.373-2.695,3.373c-1.565,0-2.247-0.926-2.247-2.184
			c0-0.527,0.112-1.054,0.225-1.561l0.702-3.442h1.769l-0.744,3.491c-0.141,0.634-0.232,1.17-0.232,1.365
			c0,0.351,0.161,0.711,0.568,0.711c0.632,0,0.786-1.111,0.94-1.881l0.758-3.686h1.769L14.616,31.303z"/>
		<path fill="#FFFFFF" d="M16.82,27.49h4.514l-0.288,1.463h-2.759l-0.26,1.335h1.425L19.2,31.585h-1.425l-0.281,1.462h2.836
			l-0.288,1.463h-4.591L16.82,27.49z"/>
		<path fill="#FFFFFF" d="M24.795,29.762c0.035-0.127,0.035-0.224,0.035-0.312c0-0.41-0.28-0.663-0.639-0.663
			c-0.309,0-0.547,0.195-0.547,0.536c0,1.063,2.212,0.761,2.212,2.876c0,1.482-1.166,2.477-2.766,2.477
			c-1.215,0-2.029-0.663-2.029-2.066c0-0.205,0.035-0.391,0.049-0.596h1.755c-0.021,0.156-0.049,0.313-0.049,0.469
			c0,0.506,0.281,0.73,0.576,0.73c0.323,0,0.652-0.273,0.652-0.711c0-1.121-2.155-0.976-2.155-3.042
			c0-1.336,1.011-2.135,2.372-2.135c1.306,0,2.107,0.663,2.107,2.086c0,0.117-0.015,0.234-0.015,0.351H24.795z"/>
		<path fill="#FFFFFF" d="M28.727,29.03h-1.671l0.302-1.541h5.005l-0.309,1.541h-1.586l-1.095,5.479h-1.741L28.727,29.03z"/>
	</g>
	<g>
		<path fill="#FFFFFF" d="M90.593,27.49h1.741l-0.555,2.769h1.235l0.555-2.769h1.741l-1.404,7.02h-1.741l0.59-2.954h-1.235
			l-0.59,2.954h-1.741L90.593,27.49z"/>
		<path fill="#FFFFFF" d="M95.416,32.57c0-0.586,0.364-3.335,1.221-4.447c0.449-0.585,1.277-0.799,2.113-0.799
			c1.172,0,2.05,0.565,2.05,1.921c0,0.79-0.4,3.656-1.271,4.631c-0.478,0.536-1.264,0.8-2.113,0.8
			C96.265,34.676,95.416,34.081,95.416,32.57z M99.045,29.508c0-0.498-0.231-0.722-0.555-0.722c-0.379,0-0.555,0.195-0.709,0.673
			c-0.407,1.238-0.625,2.808-0.625,3.033c0,0.496,0.232,0.721,0.555,0.721c0.379,0,0.555-0.195,0.709-0.672
			C98.574,32.053,99.045,29.927,99.045,29.508z"/>
		<path fill="#FFFFFF" d="M102.358,27.49h2.372l0.035,4.358h0.015l1.649-4.358h2.619l-1.453,7.02h-1.657l1.151-5.294l-0.014-0.019
			l-2.205,5.313h-1.284l-0.015-5.313h-0.014l-1.039,5.313h-1.684L102.358,27.49z"/>
		<path fill="#FFFFFF" d="M110.298,27.49h4.514l-0.288,1.463h-2.759l-0.26,1.335h1.425l-0.252,1.297h-1.426l-0.28,1.462h2.836
			l-0.288,1.463h-4.591L110.298,27.49z"/>
	</g>
	<g>
		<path fill="#FFFFFF" d="M44.904,34.51l1.404-7.02h1.741l-1.404,7.02H44.904z"/>
		<path fill="#FFFFFF" d="M49.459,27.49h1.734l0.632,4.368h0.014l0.716-4.368h1.594l-1.425,7.02h-1.614l-0.71-4.612h-0.014
			l-0.723,4.612h-1.657L49.459,27.49z"/>
		<path fill="#FFFFFF" d="M55.567,27.49h1.734l0.632,4.368h0.014l0.716-4.368h1.594l-1.425,7.02h-1.614l-0.709-4.612h-0.014
			l-0.723,4.612h-1.657L55.567,27.49z"/>
		<path fill="#FFFFFF" d="M60.235,34.51l1.403-7.02h1.741l-1.403,7.02H60.235z"/>
		<path fill="#FFFFFF" d="M64.791,27.49h1.734l0.631,4.368h0.015l0.716-4.368h1.594l-1.426,7.02H66.44l-0.709-4.612h-0.015
			l-0.723,4.612h-1.656L64.791,27.49z"/>
		<path fill="#FFFFFF" d="M73.307,33.525c-0.274,0.458-0.674,1.15-1.889,1.15c-0.941,0-1.825-0.585-1.825-1.892
			c0-1.082,0.399-2.876,0.765-3.968c0.365-1.092,1.138-1.492,2.485-1.492c1.222,0,2.253,0.371,2.253,1.882
			c0,0.322-0.07,0.643-0.14,0.946h-1.678c0.049-0.215,0.099-0.439,0.099-0.663c0-0.351-0.162-0.702-0.569-0.702
			c-0.526,0-0.828,0.458-0.989,1.063c-0.295,1.063-0.506,2.428-0.506,2.682c0,0.496,0.302,0.682,0.582,0.682
			c0.668,0,1.025-0.799,1.025-1.209h-0.814l0.253-1.296h2.492l-0.759,3.802h-0.596L73.307,33.525z"/>
	</g>
	<g>
		<path fill="#FFFFFF" d="M56.838,12.03h-1.67l0.302-1.54h5.005l-0.309,1.54h-1.587l-1.095,5.479h-1.741L56.838,12.03z"/>
		<path fill="#FFFFFF" d="M59.955,17.51l1.404-7.02h1.741l-1.404,7.02H59.955z"/>
		<path fill="#FFFFFF" d="M64.546,10.49h2.373l0.035,4.358h0.014l1.649-4.358h2.619l-1.453,7.02h-1.656l1.15-5.294l-0.014-0.02
			L67.06,17.51h-1.285l-0.014-5.314h-0.015l-1.038,5.314h-1.685L64.546,10.49z"/>
		<path fill="#FFFFFF" d="M72.486,10.49H77l-0.288,1.462h-2.759l-0.26,1.336h1.426l-0.254,1.297H73.44l-0.28,1.463h2.836
			l-0.288,1.462h-4.591L72.486,10.49z"/>
	</g>
	<g>
		<path fill="#FFFFFF" d="M25,9.484l0.966-4.968L27.7,4.502c0.802,0,1.367,0.166,1.367,1.242c0,0.78-0.464,1.194-0.671,1.346
			c0.121,0.159,0.324,0.497,0.324,0.966c0,1.442-1.13,1.442-1.922,1.442L25,9.484z M26.381,8.442
			c0.082,0.007,0.174,0.021,0.261,0.021c0.285,0,0.894,0,0.894-0.745c0-0.352-0.184-0.504-0.536-0.504
			c-0.13,0-0.256,0.014-0.386,0.035L26.381,8.442z M26.763,6.476c0.125,0.021,0.246,0.028,0.376,0.028
			c0.309,0,0.744-0.11,0.744-0.58c0-0.414-0.271-0.428-0.623-0.428c-0.106,0-0.203,0.007-0.309,0.007L26.763,6.476z"/>
		<path fill="#FFFFFF" d="M28.854,9.484l2.217-4.968h1.348l0.275,4.968h-1.058l-0.024-0.849h-1.193l-0.319,0.849H28.854z
			 M31.598,7.911l-0.048-2.242H31.54l-0.845,2.242H31.598z"/>
		<path fill="#FFFFFF" d="M34.25,4.516h1.198l-0.744,3.933h1.763l-0.193,1.035h-2.961L34.25,4.516z"/>
		<path fill="#FFFFFF" d="M37.828,4.516h1.198l-0.744,3.933h1.763l-0.193,1.035h-2.961L37.828,4.516z"/>
	</g>
	<g>
		<path fill="#FFFFFF" d="M27.57,13.123c0.024-0.089,0.024-0.159,0.024-0.221c0-0.289-0.193-0.469-0.439-0.469
			c-0.212,0-0.377,0.138-0.377,0.379c0,0.752,1.521,0.539,1.521,2.036c0,1.049-0.802,1.753-1.903,1.753
			c-0.836,0-1.396-0.469-1.396-1.462c0-0.145,0.024-0.276,0.034-0.421h1.207c-0.015,0.11-0.034,0.221-0.034,0.331
			c0,0.359,0.193,0.518,0.396,0.518c0.222,0,0.449-0.193,0.449-0.504c0-0.793-1.482-0.69-1.482-2.153
			c0-0.945,0.695-1.511,1.632-1.511c0.899,0,1.449,0.469,1.449,1.477c0,0.083-0.01,0.166-0.01,0.248H27.57z"/>
		<path fill="#FFFFFF" d="M30.274,12.606h-1.149l0.208-1.09h3.444l-0.212,1.09h-1.091l-0.754,3.878h-1.198L30.274,12.606z"/>
		<path fill="#FFFFFF" d="M33.342,11.516l1.797-0.014c0.739,0,1.304,0.214,1.304,1.373c0,1.007-0.705,1.242-1.063,1.318v0.014
			c0.483,0.386,0.367,1.242,0.599,2.277h-1.338c0-0.076-0.005-0.152-0.005-0.221c0-0.366,0.024-0.732,0.024-1.097
			c0-0.483-0.154-0.642-0.526-0.642c-0.058,0-0.125,0.007-0.184,0.014l-0.372,1.946H32.38L33.342,11.516z M34.129,13.634
			c0.135,0.028,0.28,0.042,0.42,0.042c0.362,0,0.71-0.276,0.71-0.725c0-0.373-0.184-0.531-0.521-0.531
			c-0.131,0-0.261,0.014-0.387,0.055L34.129,13.634z"/>
		<path fill="#FFFFFF" d="M36.534,16.484l0.966-4.968h1.198l-0.966,4.968H36.534z"/>
		<path fill="#FFFFFF" d="M39.635,11.516h1.198l-0.42,2.215l0.009,0.014l1.329-2.229h1.439l-1.627,2.498l0.72,2.47h-1.28
			l-0.604-2.643h-0.01l-0.493,2.643h-1.198L39.635,11.516z"/>
		<path fill="#FFFFFF" d="M43.726,11.516h3.105l-0.198,1.035h-1.898l-0.179,0.945h0.981l-0.174,0.918h-0.98l-0.193,1.035h1.951
			l-0.198,1.035h-3.159L43.726,11.516z"/>
	</g>
	<g>
		<path fill="#FFFFFF" d="M25,22.111c0-0.414,0.251-2.36,0.84-3.146c0.309-0.414,0.879-0.566,1.454-0.566
			c0.807,0,1.411,0.4,1.411,1.359c0,0.559-0.275,2.588-0.875,3.278c-0.328,0.379-0.869,0.566-1.454,0.566
			C25.584,23.601,25,23.18,25,22.111z M27.497,19.944c0-0.352-0.16-0.511-0.382-0.511c-0.261,0-0.381,0.138-0.488,0.476
			c-0.28,0.876-0.43,1.987-0.43,2.146c0,0.352,0.159,0.511,0.381,0.511c0.261,0,0.382-0.138,0.488-0.476
			C27.173,21.745,27.497,20.241,27.497,19.944z"/>
		<path fill="#FFFFFF" d="M32.472,21.214c-0.261,1.263-0.435,2.387-1.854,2.387c-1.077,0-1.545-0.655-1.545-1.545
			c0-0.373,0.077-0.745,0.154-1.104l0.483-2.436h1.217l-0.512,2.47c-0.096,0.448-0.159,0.828-0.159,0.966
			c0,0.249,0.111,0.504,0.391,0.504c0.435,0,0.541-0.787,0.648-1.332l0.521-2.608h1.217L32.472,21.214z"/>
		<path fill="#FFFFFF" d="M34.578,19.606h-1.149l0.208-1.09h3.444l-0.212,1.09h-1.091l-0.754,3.878h-1.198L34.578,19.606z"/>
	</g>
	<g>
		<path fill="#FFFFFF" d="M43.168,44.908c-0.665,0-1.203,0.538-1.203,1.203c0,0.664,0.539,1.203,1.203,1.203
			c0.665,0,1.204-0.539,1.204-1.203C44.372,45.446,43.833,44.908,43.168,44.908z M42.922,46.966l-0.301-0.239v-1.23l0.301-0.239
			V46.966z M43.319,47.031l-0.15,0.119h-0.001l-0.15-0.119v-1.84l0.15-0.119h0.001l0.15,0.119V47.031z M43.716,46.727l-0.301,0.239
			v-1.709l0.301,0.239V46.727z"/>
		<g>
			<path fill="#FFFFFF" d="M37.296,44.552c0,0-0.258,0-0.38,0c-0.083,0-0.096,0.035-0.096,0.092c0,0.097,0,0.18,0,0.275
				c0,0.275,0,0.809,0,0.809h0.402v0.306h-0.406v1.333c0,0.057,0,0.069,0.113,0.069c0.048,0,0.389,0,0.389,0v0.314
				c0,0-0.411,0-0.612,0c-0.074,0-0.157-0.048-0.184-0.144c-0.026-0.1-0.018-0.245-0.018-0.245v-2.73
				c0-0.136,0.004-0.214,0.057-0.284c0.074-0.101,0.131-0.097,0.17-0.097h0.563V44.552z"/>
			<path fill="#FFFFFF" d="M37.672,44.823c0,0,0,2.263,0,2.307c0,0.057,0,0.074,0.048,0.074c0.074,0,0.254,0,0.254,0v0.236
				c0,0-0.559,0-0.389,0c0,0-0.166,0.017-0.166-0.188l-0.004-2.434L37.672,44.823z"/>
			<path fill="#FFFFFF" d="M38.686,45.041c0,0-0.206,0-0.306,0c-0.065,0-0.074,0.026-0.074,0.066c0,0.074,0,0.135,0,0.209
				c0,0.206,0,0.604,0,0.604h0.319v0.232h-0.323v1c0,0.04,0,0.053,0.092,0.053c0.035,0,0.31,0,0.31,0v0.236c0,0-0.328,0-0.489,0
				c-0.061,0-0.127-0.04-0.149-0.109c-0.022-0.074-0.013-0.184-0.013-0.184v-2.049c0-0.101,0.004-0.162,0.043-0.215
				c0.062-0.074,0.105-0.069,0.14-0.069h0.45V45.041z"/>
			<path fill="#FFFFFF" d="M39.494,45.094c0.044,0.14,0.04,0.341,0.035,0.494h-0.253c-0.013-0.197,0.039-0.473-0.07-0.556
				c-0.048-0.013-0.096-0.013-0.131,0.04c-0.04,0.078-0.031,0.179-0.04,0.275v1.703c0.004,0.057,0.013,0.114,0.035,0.157
				c0.048,0.049,0.135,0.053,0.162,0.009c0.057-0.113,0.044-0.279,0.044-0.433c0.004-0.117,0-0.257,0.004-0.362h0.253
				c-0.009,0.332,0.039,0.747-0.136,0.957c-0.14,0.153-0.367,0.136-0.502-0.021c-0.114-0.171-0.118-0.45-0.122-0.717l0.004-1.171
				c-0.004-0.245,0.044-0.503,0.166-0.607c0.14-0.104,0.333-0.104,0.459,0.039C39.442,44.958,39.477,45.02,39.494,45.094z"/>
			<path fill="#FFFFFF" d="M40.312,44.818v0.245h-0.228v2.377h-0.258v-2.373h-0.223v-0.249H40.312z"/>
			<path fill="#FFFFFF" d="M40.792,44.818c0.179,0,0.253,0.07,0.292,0.175c0.031,0.109,0.031,0.245,0.031,0.371
				c-0.004,0.28,0.026,0.651-0.144,0.766c0.061,0.043,0.126,0.147,0.135,0.27c0.009,0.341,0.004,1.04,0.004,1.04h-0.245
				c0,0,0-0.651-0.009-0.988c-0.009-0.083-0.043-0.161-0.092-0.188c-0.039-0.03-0.148-0.03-0.148-0.03v1.206h-0.249v-2.622H40.792z
				 M40.779,45.059c-0.048-0.026-0.114-0.026-0.162-0.013v0.943c0.061,0.014,0.131,0.009,0.188-0.026
				c0.07-0.083,0.052-0.253,0.061-0.38c-0.004-0.157,0-0.288-0.018-0.419C40.831,45.09,40.805,45.076,40.779,45.059z"/>
			<path fill="#FFFFFF" d="M41.906,47.077c0,0,0.013,0.18-0.101,0.284c-0.14,0.14-0.345,0.131-0.489,0.013
				c-0.131-0.104-0.127-0.292-0.127-0.292v-1.905c0,0-0.004-0.188,0.127-0.293c0.144-0.117,0.354-0.126,0.494,0.014
				c0.118,0.118,0.096,0.301,0.096,0.301V47.077z M41.666,45.177c0-0.092-0.022-0.145-0.109-0.145c-0.092,0-0.105,0.058-0.1,0.145
				c-0.004,0.236,0,1.9,0,1.9c-0.004,0.101,0.017,0.153,0.1,0.145c0.087,0,0.109-0.053,0.109-0.145
				C41.666,47.077,41.666,45.247,41.666,45.177z"/>
		</g>
		<g>
			<path fill="#FFFFFF" d="M45.03,44.967c0.127-0.205,0.319-0.218,0.433-0.096c0.096,0.087,0.148,0.279,0.148,0.48v2.089h-0.254
				v-2.233c-0.008-0.135-0.043-0.161-0.104-0.161c-0.062,0-0.109,0.026-0.109,0.161v2.233h-0.258v-2.237
				c0-0.104-0.044-0.144-0.104-0.144c-0.062,0-0.101,0.04-0.109,0.144v2.237h-0.249v-2.067c0-0.209,0.021-0.419,0.14-0.511
				C44.702,44.753,44.917,44.762,45.03,44.967z"/>
			<path fill="#FFFFFF" d="M46.328,45.041c0,0-0.206,0-0.306,0c-0.065,0-0.075,0.026-0.075,0.066c0,0.074,0,0.135,0,0.209
				c0,0.206,0,0.604,0,0.604h0.319v0.232h-0.323v1c0,0.04,0,0.053,0.092,0.053c0.035,0,0.311,0,0.311,0v0.236c0,0-0.328,0-0.489,0
				c-0.062,0-0.127-0.04-0.149-0.109c-0.021-0.074-0.013-0.184-0.013-0.184v-2.049c0-0.101,0.004-0.162,0.044-0.215
				c0.061-0.074,0.104-0.069,0.14-0.069h0.45V45.041z"/>
			<path fill="#FFFFFF" d="M47.167,45.094c0.044,0.14,0.039,0.341,0.035,0.494h-0.254c-0.013-0.197,0.039-0.473-0.07-0.556
				c-0.048-0.013-0.096-0.013-0.131,0.04c-0.039,0.078-0.03,0.179-0.039,0.275v1.703c0.005,0.057,0.013,0.114,0.035,0.157
				c0.048,0.049,0.135,0.053,0.161,0.009c0.058-0.113,0.044-0.279,0.044-0.433c0.005-0.117,0-0.257,0.005-0.362h0.253
				c-0.009,0.332,0.039,0.747-0.136,0.957c-0.14,0.153-0.366,0.136-0.502-0.021c-0.113-0.171-0.118-0.45-0.122-0.717l0.004-1.171
				c-0.004-0.245,0.044-0.503,0.166-0.607c0.14-0.104,0.332-0.104,0.459,0.039C47.114,44.958,47.149,45.02,47.167,45.094z"/>
			<path fill="#FFFFFF" d="M47.626,44.25v1.464h0.306V44.25h0.315v3.496h-0.319v-1.708h-0.301v1.708h-0.319V44.25H47.626z"/>
		</g>
	</g>
</g>
</svg>
