<?xml version="1.0" encoding="utf-8"?>
<!-- Generator: Adobe Illustrator 17.1.0, SVG Export Plug-In . SVG Version: 6.00 Build 0)  -->
<!DOCTYPE svg PUBLIC "-//W3C//DTD SVG 1.1//EN" "http://www.w3.org/Graphics/SVG/1.1/DTD/svg11.dtd">
<svg version="1.1" xmlns="http://www.w3.org/2000/svg" xmlns:xlink="http://www.w3.org/1999/xlink" x="0px" y="0px"
	 viewBox="0 0 84 60" enable-background="new 0 0 84 60" xml:space="preserve">
<g id="Accent_Striping">
	<polygon fill="#FFFFFF" points="1,1 1,59 34.5,59 34.5,58 2,58 2,2 82,2 82,58 49.5,58 49.5,59 83,59 83,1 	"/>
</g>
<g id="Captions">
	<g>
		<circle fill="#FFFFFF" cx="42" cy="11.5" r="1.25"/>
		<circle fill="#FFFFFF" cx="42" cy="16.5" r="1.25"/>
	</g>
	<g>
		<path fill="#FFFFFF" d="M3.597,29.84l1.483-0.012c0.84-0.006,1.483,0.186,1.483,1.296c0,0.744-0.389,1.218-0.792,1.368
			c-0.326,0.126-1.204,0.12-1.598,0.126L3.832,34.16h-1.19L3.597,29.84z M4.346,31.82h0.177c0.178,0,0.456-0.018,0.562-0.084
			c0.187-0.12,0.326-0.36,0.326-0.582c0-0.45-0.269-0.486-0.538-0.486H4.6L4.346,31.82z"/>
		<path fill="#FFFFFF" d="M7.609,29.84H8.8l-0.739,3.42h1.752l-0.192,0.9H6.679L7.609,29.84z"/>
		<path fill="#FFFFFF" d="M9.894,34.16l2.203-4.32h1.339l0.274,4.32h-1.051l-0.024-0.738h-1.186l-0.316,0.738H9.894z M12.621,32.792
			l-0.048-1.95h-0.009l-0.84,1.95H12.621z"/>
		<path fill="#FFFFFF" d="M15.049,32.114l-0.725-2.274h1.205l0.264,1.206l0.686-1.206h1.444l-1.684,2.274l-0.451,2.046h-1.19
			L15.049,32.114z"/>
		<path fill="#FFFFFF" d="M23.525,32.3c-0.201,0.847-0.417,1.962-1.972,1.962c-0.902,0-1.493-0.354-1.493-1.283
			c0-0.354,0.264-2.041,0.692-2.604c0.259-0.349,0.739-0.636,1.521-0.636c0.874,0,1.44,0.384,1.44,1.319
			c0,0.192-0.034,0.384-0.072,0.57h-1.176c0.044-0.162,0.091-0.336,0.091-0.504c0-0.294-0.11-0.486-0.389-0.486
			c-0.259,0-0.465,0.216-0.595,0.763l-0.264,1.08c-0.053,0.216-0.072,0.354-0.072,0.51c0,0.252,0.173,0.372,0.365,0.372
			c0.513,0,0.623-0.63,0.705-1.063H23.525z"/>
		<path fill="#FFFFFF" d="M24.765,29.84h1.19l-0.739,3.42h1.752l-0.192,0.9h-2.942L24.765,29.84z"/>
		<path fill="#FFFFFF" d="M28.326,29.84h1.19l-0.418,1.926l0.01,0.012l1.32-1.938h1.43l-1.617,2.172l0.715,2.148h-1.271l-0.6-2.298
			h-0.01l-0.489,2.298h-1.19L28.326,29.84z"/>
	</g>
	<g>
		<path fill="#FFFFFF" d="M54.819,31.238c0.024-0.078,0.024-0.139,0.024-0.192c0-0.252-0.192-0.408-0.438-0.408
			c-0.211,0-0.373,0.12-0.373,0.33c0,0.654,1.511,0.468,1.511,1.771c0,0.912-0.796,1.523-1.891,1.523
			c-0.83,0-1.387-0.407-1.387-1.271c0-0.126,0.024-0.24,0.034-0.366H53.5c-0.015,0.096-0.033,0.192-0.033,0.288
			c0,0.313,0.191,0.45,0.393,0.45c0.221,0,0.447-0.168,0.447-0.438c0-0.689-1.474-0.6-1.474-1.872c0-0.822,0.69-1.313,1.622-1.313
			c0.893,0,1.439,0.407,1.439,1.283c0,0.072-0.01,0.145-0.01,0.217H54.819z"/>
		<path fill="#FFFFFF" d="M56.922,29.84h3.086l-0.196,0.9h-1.886l-0.178,0.822h0.974l-0.173,0.798h-0.974l-0.192,0.899h1.939
			l-0.197,0.9h-3.139L56.922,29.84z"/>
		<path fill="#FFFFFF" d="M62.447,33.555c-0.188,0.281-0.461,0.707-1.291,0.707c-0.644,0-1.248-0.359-1.248-1.164
			c0-0.666,0.273-1.77,0.523-2.441c0.249-0.672,0.777-0.918,1.698-0.918c0.835,0,1.54,0.227,1.54,1.158
			c0,0.197-0.047,0.396-0.096,0.582h-1.146c0.033-0.133,0.066-0.271,0.066-0.408c0-0.217-0.109-0.433-0.389-0.433
			c-0.359,0-0.565,0.282-0.676,0.654c-0.202,0.654-0.346,1.494-0.346,1.65c0,0.306,0.206,0.42,0.398,0.42
			c0.455,0,0.7-0.492,0.7-0.744h-0.557l0.173-0.798h1.703l-0.518,2.34h-0.408L62.447,33.555z"/>
		<path fill="#FFFFFF" d="M64.736,29.84h1.622l0.024,2.682h0.01l1.127-2.682h1.791l-0.994,4.32h-1.133l0.787-3.258l-0.01-0.013
			l-1.506,3.271h-0.879l-0.01-3.271h-0.01l-0.71,3.271h-1.151L64.736,29.84z"/>
		<path fill="#FFFFFF" d="M70.166,29.84h3.085l-0.196,0.9h-1.887l-0.178,0.822h0.975l-0.173,0.798h-0.974l-0.192,0.899h1.938
			l-0.196,0.9h-3.139L70.166,29.84z"/>
		<path fill="#FFFFFF" d="M74.044,29.84h1.185l0.433,2.689h0.009l0.49-2.689h1.09l-0.975,4.32h-1.104l-0.485-2.838h-0.009
			l-0.495,2.838h-1.132L74.044,29.84z"/>
		<path fill="#FFFFFF" d="M78.748,30.788h-1.143l0.207-0.948h3.421l-0.211,0.948h-1.085l-0.748,3.372h-1.19L78.748,30.788z"/>
	</g>
	<g>
		<path fill="#FFFFFF" d="M42.794,56.157c-0.665,0-1.204,0.539-1.204,1.204c0,0.664,0.539,1.203,1.204,1.203
			c0.664,0,1.203-0.539,1.203-1.203C43.997,56.696,43.458,56.157,42.794,56.157z M42.548,58.216l-0.301-0.24v-1.231l0.301-0.239
			V58.216z M42.944,58.28l-0.15,0.119h-0.001l-0.149-0.119v-1.839l0.149-0.12h0.001l0.15,0.12V58.28z M43.341,57.976l-0.301,0.24
			v-1.71l0.301,0.239V57.976z"/>
		<g>
			<path fill="#FFFFFF" d="M36.921,55.802c0,0-0.258,0-0.38,0c-0.083,0-0.096,0.035-0.096,0.092c0,0.096,0,0.179,0,0.275
				c0,0.275,0,0.809,0,0.809h0.401v0.306H36.44v1.332c0,0.057,0,0.07,0.114,0.07c0.048,0,0.389,0,0.389,0V59c0,0-0.411,0-0.612,0
				c-0.075,0-0.158-0.048-0.184-0.145c-0.026-0.101-0.017-0.244-0.017-0.244V55.88c0-0.135,0.004-0.214,0.057-0.283
				c0.074-0.101,0.131-0.097,0.17-0.097h0.564V55.802z"/>
			<path fill="#FFFFFF" d="M37.297,56.072c0,0,0,2.264,0,2.307c0,0.058,0,0.074,0.048,0.074c0.074,0,0.253,0,0.253,0v0.236
				c0,0-0.559,0-0.389,0c0,0-0.166,0.018-0.166-0.188l-0.005-2.434L37.297,56.072z"/>
			<path fill="#FFFFFF" d="M38.311,56.291c0,0-0.206,0-0.306,0c-0.065,0-0.074,0.026-0.074,0.065c0,0.074,0,0.136,0,0.21
				c0,0.205,0,0.604,0,0.604h0.319v0.232h-0.323v1c0,0.039,0,0.052,0.092,0.052c0.035,0,0.31,0,0.31,0v0.236c0,0-0.328,0-0.489,0
				c-0.061,0-0.127-0.039-0.149-0.109c-0.022-0.074-0.013-0.184-0.013-0.184v-2.049c0-0.101,0.004-0.161,0.043-0.214
				c0.062-0.074,0.105-0.07,0.14-0.07h0.45V56.291z"/>
			<path fill="#FFFFFF" d="M39.119,56.344c0.044,0.14,0.04,0.341,0.035,0.493h-0.253c-0.013-0.196,0.039-0.472-0.07-0.555
				c-0.048-0.013-0.096-0.013-0.131,0.039c-0.04,0.079-0.031,0.18-0.04,0.275v1.704c0.004,0.057,0.013,0.113,0.035,0.157
				c0.048,0.048,0.135,0.053,0.162,0.009c0.057-0.114,0.044-0.28,0.044-0.433c0.004-0.118,0-0.258,0.004-0.362h0.253
				c-0.009,0.332,0.039,0.747-0.136,0.956c-0.14,0.153-0.367,0.136-0.502-0.021c-0.114-0.17-0.118-0.45-0.122-0.717l0.004-1.17
				c-0.004-0.245,0.044-0.503,0.166-0.607c0.14-0.105,0.333-0.105,0.459,0.039C39.067,56.208,39.102,56.27,39.119,56.344z"/>
			<path fill="#FFFFFF" d="M39.937,56.068v0.245h-0.228v2.376h-0.258v-2.372h-0.223v-0.249H39.937z"/>
			<path fill="#FFFFFF" d="M40.417,56.068c0.179,0,0.253,0.07,0.292,0.175c0.031,0.109,0.031,0.244,0.031,0.371
				c-0.004,0.28,0.026,0.651-0.144,0.765c0.061,0.044,0.126,0.148,0.135,0.271c0.009,0.34,0.004,1.039,0.004,1.039h-0.245
				c0,0,0-0.651-0.009-0.987c-0.009-0.083-0.043-0.161-0.092-0.188c-0.039-0.03-0.148-0.03-0.148-0.03v1.205h-0.249v-2.621H40.417z
				 M40.404,56.309c-0.048-0.026-0.114-0.026-0.162-0.013v0.943c0.061,0.013,0.131,0.009,0.188-0.026
				c0.07-0.083,0.052-0.253,0.061-0.38c-0.004-0.157,0-0.288-0.018-0.42C40.456,56.339,40.43,56.326,40.404,56.309z"/>
			<path fill="#FFFFFF" d="M41.531,58.327c0,0,0.013,0.179-0.101,0.284c-0.14,0.14-0.345,0.131-0.489,0.013
				c-0.131-0.104-0.127-0.293-0.127-0.293v-1.904c0,0-0.004-0.188,0.127-0.293c0.144-0.118,0.354-0.127,0.494,0.013
				c0.118,0.118,0.096,0.302,0.096,0.302V58.327z M41.291,56.427c0-0.092-0.022-0.145-0.109-0.145c-0.092,0-0.105,0.057-0.1,0.145
				c-0.004,0.235,0,1.9,0,1.9c-0.004,0.101,0.017,0.152,0.1,0.144c0.087,0,0.109-0.052,0.109-0.144
				C41.291,58.327,41.291,56.496,41.291,56.427z"/>
		</g>
		<g>
			<path fill="#FFFFFF" d="M44.655,56.217c0.127-0.205,0.319-0.219,0.433-0.096c0.096,0.087,0.148,0.279,0.148,0.48v2.088h-0.254
				v-2.232c-0.008-0.136-0.043-0.161-0.104-0.161c-0.062,0-0.109,0.025-0.109,0.161v2.232h-0.258v-2.236
				c0-0.105-0.044-0.144-0.104-0.144c-0.062,0-0.101,0.039-0.109,0.144v2.236h-0.249v-2.066c0-0.21,0.021-0.419,0.14-0.511
				C44.327,56.003,44.542,56.012,44.655,56.217z"/>
			<path fill="#FFFFFF" d="M45.953,56.291c0,0-0.206,0-0.307,0c-0.064,0-0.074,0.026-0.074,0.065c0,0.074,0,0.136,0,0.21
				c0,0.205,0,0.604,0,0.604h0.319v0.232h-0.323v1c0,0.039,0,0.052,0.092,0.052c0.035,0,0.31,0,0.31,0v0.236c0,0-0.328,0-0.49,0
				c-0.061,0-0.127-0.039-0.148-0.109c-0.022-0.074-0.013-0.184-0.013-0.184v-2.049c0-0.101,0.004-0.161,0.044-0.214
				c0.061-0.074,0.104-0.07,0.139-0.07h0.451V56.291z"/>
			<path fill="#FFFFFF" d="M46.791,56.344c0.044,0.14,0.04,0.341,0.035,0.493h-0.253c-0.014-0.196,0.039-0.472-0.07-0.555
				c-0.048-0.013-0.096-0.013-0.131,0.039c-0.04,0.079-0.03,0.18-0.04,0.275v1.704c0.005,0.057,0.014,0.113,0.035,0.157
				c0.049,0.048,0.136,0.053,0.162,0.009c0.057-0.114,0.044-0.28,0.044-0.433c0.004-0.118,0-0.258,0.004-0.362h0.254
				c-0.009,0.332,0.039,0.747-0.136,0.956c-0.14,0.153-0.367,0.136-0.503-0.021c-0.112-0.17-0.117-0.45-0.122-0.717l0.005-1.17
				c-0.005-0.245,0.043-0.503,0.166-0.607c0.14-0.105,0.332-0.105,0.458,0.039C46.739,56.208,46.773,56.27,46.791,56.344z"/>
			<path fill="#FFFFFF" d="M47.25,55.5v1.464h0.306V55.5h0.315v3.495h-0.319v-1.708H47.25v1.708h-0.318V55.5H47.25z"/>
		</g>
	</g>
</g>
</svg>
